<?xml version="1.0" encoding="utf-8"?>
<!-- Generator: Adobe Illustrator 17.1.0, SVG Export Plug-In . SVG Version: 6.00 Build 0)  -->
<!DOCTYPE svg PUBLIC "-//W3C//DTD SVG 1.1//EN" "http://www.w3.org/Graphics/SVG/1.1/DTD/svg11.dtd">
<svg version="1.1" id="Layer_1" xmlns="http://www.w3.org/2000/svg" xmlns:xlink="http://www.w3.org/1999/xlink" x="0px" y="0px"
	 viewBox="0 0 1920 1080" enable-background="new 0 0 1920 1080" xml:space="preserve">
<g>
	<path fill="#BCEDAB" d="M-969.7,31.7c0,0,498.1-225.6,709.3-219.5C15.9-179.9,257.7,25.7,588,31.7S950.3-2.8,950.3-2.8v229.4h-1920
		V31.7z"/>
	<path opacity="0.1" fill="#231F20" enable-background="new    " d="M-268.3,18.9c0,0-3.4-0.5-8.6-0.6l5.3-16.7
		c0.7-2.2-1-4.5-3.3-4.5c-0.1,0-0.1,0-0.2,0c-2.4,0-4.1-2.4-3.3-4.6l3.2-9.3c0.8-2.3-0.9-4.7-3.3-4.6h-0.1c-2.5,0.1-4.3-2.5-3.3-4.8
		l5.4-12.6c0.8-1.9-0.1-4-2.1-4.7c-3.3-1.1-9.9-1.4-22.6,2.8l-8.8-17.9c0,0-7-3.1-11.7-0.8c-4.8,2.3-3,8.6-3,8.6l8.2,16.6
		c-13.3,7.4-16.9,15.3-17.7,20.1c-0.4,2.4,1.2,4.7,3.5,5.2l9.9,2.1c3,0.6,4.5,4,3,6.7c0,0.1-0.1,0.1-0.1,0.2
		c-1.5,2.5-0.1,5.8,2.7,6.6l5.9,1.7c2.8,0.8,4.1,4,2.7,6.5c0,0,0,0.1-0.1,0.1c-1.3,2.5-0.1,5.6,2.6,6.4l9.2,2.9
		c2.6,0.8,3.9,3.7,2.8,6.2c-0.3,0.8-0.6,1.5-0.9,2.2c-0.7,1.9-0.1,4,1.5,5.2l22,17.1c3,2.4,7.4-0.3,6.7-4L-268.3,18.9z"/>
	<path opacity="0.1" fill="#231F20" enable-background="new    " d="M-28.9-39.7c0,0-3.9,0.3-9.7,1.6l1.5-19.8
		c0.2-2.7-2.3-4.8-4.9-4.1c-0.1,0-0.1,0-0.2,0.1c-2.6,0.6-5.1-1.5-4.9-4.2l1.1-11.1c0.3-2.7-2.2-4.9-4.9-4.2c-0.1,0-0.1,0-0.2,0
		c-2.8,0.7-5.4-1.7-4.9-4.5l2.7-15.3c0.4-2.3-1.2-4.4-3.5-4.6c-4-0.3-11.4,1.1-24.2,9l-14.5-17.5c0,0-8.5-1.6-13.2,2.2
		s-1.1,10.3-1.1,10.3l13.4,16.3c-12.8,11.7-14.6,21.3-14.3,26.8c0.2,2.7,2.5,4.9,5.3,4.8l11.5-0.2c3.5-0.1,6,3.3,5,6.7
		c0,0.1,0,0.2-0.1,0.2c-0.9,3.2,1.4,6.4,4.7,6.6l7,0.3c3.3,0.2,5.6,3.3,4.7,6.5c0,0.1,0,0.1,0,0.2c-0.8,3.1,1.4,6.2,4.6,6.4l11,0.8
		c3.1,0.2,5.2,3.1,4.7,6.1c-0.2,1-0.3,1.9-0.4,2.6c-0.3,2.2,0.9,4.4,3,5.4l28.8,13.2c4,1.8,8.1-2.2,6.4-6.2L-28.9-39.7z"/>
	<path opacity="0.1" fill="#231F20" enable-background="new    " d="M-662.8,165.2c0,0-3.8-0.8-9.7-1.3l7.1-18.6
		c1-2.5-0.8-5.2-3.5-5.4c-0.1,0-0.1,0-0.2,0c-2.7-0.1-4.5-3-3.4-5.5l4.3-10.3c1.1-2.5-0.7-5.4-3.5-5.5c-0.1,0-0.1,0-0.2,0
		c-2.9-0.1-4.7-3.2-3.4-5.7l7-13.9c1-2.1,0.1-4.6-2-5.4c-3.7-1.4-11.2-2.3-25.8,1.6l-8.8-20.9c0,0-7.7-4-13.2-1.7
		c-5.6,2.3-4,9.6-4,9.6l8.2,19.4c-15.6,7.5-20.2,16.2-21.4,21.5c-0.6,2.7,1,5.4,3.6,6.1l11.1,3.1c3.4,0.9,4.8,4.9,2.9,7.8
		c0,0.1-0.1,0.1-0.1,0.2c-1.8,2.8-0.5,6.5,2.6,7.7l6.6,2.3c3.1,1.1,4.4,4.8,2.6,7.6l-0.1,0.1c-1.7,2.7-0.5,6.3,2.6,7.5l10.3,3.9
		c2.9,1.1,4.1,4.4,2.7,7.2c-0.4,0.9-0.8,1.7-1.2,2.4c-0.9,2.1-0.4,4.5,1.3,6l23.8,20.9c3.3,2.9,8.4,0.2,7.9-4.1L-662.8,165.2z"/>
	<path opacity="6.000000e-02" fill="#231F20" enable-background="new    " d="M-508.6-53.5c0,0-1.5-0.4-3.7-0.8l3.3-7
		c0.4-0.9-0.2-2-1.2-2.2h-0.1c-1.1-0.1-1.7-1.3-1.2-2.2l2-3.9c0.5-1-0.1-2.1-1.2-2.2c0,0,0,0-0.1,0c-1.1-0.1-1.7-1.4-1.2-2.3
		l3.1-5.2c0.5-0.8,0.2-1.8-0.6-2.2c-1.4-0.7-4.3-1.2-10.1-0.1l-2.8-8.4c0,0-2.9-1.8-5.1-1s-1.8,3.6-1.8,3.6l2.6,7.8
		c-6.3,2.5-8.3,5.7-8.9,7.8c-0.3,1,0.2,2.1,1.2,2.5l4.2,1.5c1.3,0.5,1.7,2,0.9,3.1c0,0,0,0-0.1,0.1c-0.8,1-0.4,2.5,0.8,3l2.5,1.1
		c1.2,0.5,1.6,2,0.8,3c0,0,0,0,0,0.1c-0.7,1-0.3,2.4,0.8,3l3.9,1.8c1.1,0.5,1.5,1.8,0.9,2.9c-0.2,0.3-0.4,0.6-0.5,0.9
		c-0.4,0.8-0.3,1.7,0.3,2.4l8.7,8.8c1.2,1.2,3.3,0.3,3.2-1.4L-508.6-53.5z"/>
	<path opacity="6.000000e-02" fill="#231F20" enable-background="new    " d="M-391.7-123.6c0,0-1.5-0.4-3.8-0.7l3.1-7.1
		c0.4-1-0.2-2-1.3-2.1h-0.1c-1.1-0.1-1.7-1.2-1.2-2.2l1.8-3.9c0.5-1-0.2-2.1-1.3-2.2c0,0,0,0-0.1,0c-1.1-0.1-1.8-1.3-1.2-2.3
		l2.9-5.3c0.4-0.8,0.1-1.8-0.7-2.1c-1.4-0.6-4.3-1.1-10.1,0.2l-3.1-8.3c0,0-2.9-1.7-5.1-0.9c-2.2,0.8-1.7,3.7-1.7,3.7l2.9,7.7
		c-6.2,2.7-8.1,6-8.7,8c-0.3,1,0.3,2.1,1.3,2.4l4.3,1.4c1.3,0.4,1.8,2,1,3.1c0,0,0,0-0.1,0.1c-0.8,1.1-0.3,2.5,0.9,3l2.5,1
		c1.2,0.5,1.6,1.9,0.9,3c0,0,0,0,0,0.1c-0.7,1-0.3,2.5,0.9,3l3.9,1.7c1.1,0.5,1.5,1.8,0.9,2.8c-0.2,0.3-0.4,0.6-0.5,0.9
		c-0.4,0.8-0.2,1.7,0.4,2.3l8.9,8.5c1.2,1.2,3.3,0.2,3.1-1.5L-391.7-123.6z"/>
	<path fill="#A6DB97" d="M950.3-49.5c0,0-376.4-145.4-571.4-145.4c-247.5,0-656,277.3-986.2,286c-330.3,8.6-362.4-49.8-362.4-49.8
		V372h1920V-49.5z"/>
	<g>
		<path fill="#C9AD72" d="M-109.3-143.9v37.6c0,0,4.4,5.3,9.2,5.3s5.9-5.9,5.9-5.9v-39.4L-109.3-143.9z"/>
		<g>
			<path fill="#B7DAD6" d="M-101-224.3l-28.5,36.6c0,0,14.3,10,30.2,10.6s27.6-13.1,27.6-13.1L-101-224.3z"/>
			<path fill="#B7DAD6" d="M-102.1-205.5l-34.6,36.3c0,0,17.6,10.1,37.1,10.8c19.4,0.7,33.7-12.8,33.7-12.8L-102.1-205.5z"/>
			<path fill="#B7DAD6" d="M-102.9-190.8l-38.5,38.3c0,0,19.7,10.7,41.4,11.5s37.5-13.5,37.5-13.5L-102.9-190.8z"/>
			<path fill="#B7DAD6" d="M-103.9-173.4l-44,38c0,0,22.7,10.8,47.7,11.8c24.9,1,43.1-13.2,43.1-13.2L-103.9-173.4z"/>
		</g>
	</g>
	<g>
		<path fill="#C9AD72" d="M-722.2,28.7v45.9c0,0,5.4,6.5,11.3,6.5c5.9,0,7.2-7.2,7.2-7.2v-48L-722.2,28.7z"/>
		<g>
			<path fill="#B7DAD6" d="M-712-69.4l-34.7,44.6c0,0,17.5,12.2,36.8,12.9s33.6-15.9,33.6-15.9L-712-69.4z"/>
			<path fill="#B7DAD6" d="M-713.4-46.5l-42.1,44.3c0,0,21.5,12.3,45.2,13.2s41-15.6,41-15.6L-713.4-46.5z"/>
			<path fill="#B7DAD6" d="M-714.4-28.6L-761.3,18c0,0,24,13,50.5,14.1c26.5,1,45.8-16.4,45.8-16.4L-714.4-28.6z"/>
			<path fill="#B7DAD6" d="M-715.6-7.4L-769.3,39c0,0,27.7,13.2,58.1,14.3c30.4,1.2,52.5-16.1,52.5-16.1L-715.6-7.4z"/>
		</g>
	</g>
	<g>
		<path fill="#C9AD72" d="M-413.2-180.1v17.8c0,0,2.1,2.5,4.4,2.5c2.3,0,2.8-2.8,2.8-2.8v-18.6L-413.2-180.1z"/>
		<g>
			<path fill="#86A8A3" d="M-409.2-218.1l-13.5,17.3c0,0,6.8,4.7,14.3,5s13-6.2,13-6.2L-409.2-218.1z"/>
			<path fill="#86A8A3" d="M-409.8-209.2l-16.3,17.2c0,0,8.3,4.8,17.5,5.1c9.2,0.4,15.9-6.1,15.9-6.1L-409.8-209.2z"/>
			<path fill="#86A8A3" d="M-410.2-202.3l-18.2,18.1c0,0,9.3,5.1,19.6,5.5s17.8-6.4,17.8-6.4L-410.2-202.3z"/>
			<path fill="#86A8A3" d="M-410.6-194l-20.8,18c0,0,10.7,5.1,22.5,5.6s20.4-6.3,20.4-6.3L-410.6-194z"/>
		</g>
	</g>
	<g>
		<path fill="#C9AD72" d="M-328.7-91.3v30.2c0,0,3.6,4.3,7.4,4.3c3.9,0,4.7-4.7,4.7-4.7v-31.7L-328.7-91.3z"/>
		<g>
			<path fill="#86A8A3" d="M-322-155.9l-22.9,29.4c0,0,11.5,8,24.3,8.5c12.7,0.5,22.2-10.5,22.2-10.5L-322-155.9z"/>
			<path fill="#86A8A3" d="M-322.9-140.8l-27.8,29.2c0,0,14.2,8.1,29.8,8.7c15.6,0.6,27-10.3,27-10.3L-322.9-140.8z"/>
			<path fill="#86A8A3" d="M-323.5-129l-30.9,30.7c0,0,15.8,8.6,33.3,9.3c17.4,0.7,30.2-10.8,30.2-10.8L-323.5-129z"/>
			<path fill="#86A8A3" d="M-324.4-115.1l-35.3,30.6c0,0,18.2,8.7,38.3,9.5s34.6-10.6,34.6-10.6L-324.4-115.1z"/>
		</g>
	</g>
	<g>
		<path fill="#C9AD72" d="M-529.3-110v18.4c0,0,2.2,2.6,4.5,2.6s2.9-2.9,2.9-2.9v-19.3L-529.3-110z"/>
		<g>
			<path fill="#B7DAD6" d="M-525.2-149.3l-13.9,17.9c0,0,7,4.9,14.8,5.2s13.5-6.4,13.5-6.4L-525.2-149.3z"/>
			<path fill="#B7DAD6" d="M-525.7-140.1l-16.9,17.8c0,0,8.6,4.9,18.1,5.3c9.5,0.4,16.5-6.3,16.5-6.3L-525.7-140.1z"/>
			<path fill="#B7DAD6" d="M-526.1-132.9l-18.8,18.7c0,0,9.6,5.2,20.2,5.6c10.6,0.4,18.4-6.6,18.4-6.6L-526.1-132.9z"/>
			<path fill="#B7DAD6" d="M-526.6-124.4l-21.5,18.6c0,0,11.1,5.3,23.3,5.8s21.1-6.5,21.1-6.5L-526.6-124.4z"/>
		</g>
	</g>
	<path opacity="7.000000e-02" fill="#231F20" enable-background="new    " d="M800,188.6c0,0-12.8-2-32.1-2.3l19.7-62.3
		c2.7-8.4-3.6-17-12.4-16.9c-0.2,0-0.5,0-0.7,0c-9,0.1-15.3-8.8-12.3-17.3L774.3,55c3-8.6-3.5-17.5-12.5-17.3c-0.2,0-0.4,0-0.5,0
		c-9.4,0.2-16-9.4-12.2-18.1l20.1-46.9c3-7-0.5-15.1-7.8-17.4c-12.5-4-37.1-5.2-84.4,10.6L644-101c0,0-26-11.6-43.8-3
		S589-71.8,589-71.8l30.7,62.2c-49.8,27.6-63,57.2-66,75c-1.5,8.9,4.3,17.4,13.2,19.3l36.9,7.9c11.3,2.4,16.8,15.1,11.1,25.1
		c-0.1,0.2-0.3,0.4-0.4,0.7c-5.4,9.5-0.4,21.6,10.1,24.6l22.2,6.3c10.4,3,15.4,14.9,10.2,24.4c-0.1,0.2-0.2,0.3-0.3,0.5
		c-5,9.3-0.2,20.9,9.9,24.1l34.4,10.9c9.6,3,14.4,13.8,10.4,23c-1.3,3-2.4,5.7-3.3,8.2c-2.6,7-0.4,14.8,5.4,19.4l82.3,64
		c11.3,8.8,27.6-0.9,25.1-15.1L800,188.6z"/>
	<path opacity="7.000000e-02" fill="#231F20" enable-background="new    " d="M948.5,249.3c0,0-12.8-2-32.1-2.3l19.7-62.3
		c2.7-8.4-3.6-17-12.4-16.9c-0.2,0-0.5,0-0.7,0c-9,0.1-15.3-8.8-12.3-17.3l12.1-34.7c3-8.6-3.5-17.5-12.5-17.3c-0.2,0-0.4,0-0.5,0
		c-9.4,0.2-16-9.4-12.2-18.1l20.1-46.9c3-7-0.5-15.1-7.8-17.4c-12.5-4-37.1-5.2-84.4,10.6l-33-66.9c0,0-26-11.6-43.8-3
		S737.5-11,737.5-11l30.7,62.2c-49.8,27.6-63,57.2-66,75c-1.5,8.9,4.3,17.4,13.2,19.3l36.9,7.9c11.3,2.4,16.8,15.1,11.1,25.1
		c-0.1,0.2-0.3,0.4-0.4,0.7c-5.4,9.5-0.4,21.6,10.1,24.6l22.2,6.3c10.4,3,15.4,14.9,10.2,24.4c-0.1,0.2-0.2,0.3-0.3,0.5
		c-5,9.3-0.2,20.9,9.9,24.1l34.4,10.9c9.6,3,14.4,13.8,10.4,23c-1.3,3-2.4,5.7-3.3,8.2c-2.6,7-0.4,14.8,5.4,19.4l82.3,64
		c11.3,8.8,27.6-0.9,25.1-15.1L948.5,249.3z"/>
	<g>
		<path fill="#C9AD72" d="M591.2-182.9v96c0,0,11.3,13.5,23.5,13.5s15.1-15,15.1-15v-100.5L591.2-182.9z"/>
		<g>
			<path fill="#B7DAD6" d="M612.5-388l-72.6,93.3c0,0,36.5,25.4,77,27s70.3-33.3,70.3-33.3L612.5-388z"/>
			<path fill="#B7DAD6" d="M609.7-340.1l-88.1,92.7c0,0,45,25.7,94.5,27.7c49.6,1.9,85.8-32.7,85.8-32.7L609.7-340.1z"/>
			<path fill="#B7DAD6" d="M607.6-302.6L509.4-205c0,0,50.3,27.3,105.6,29.4c55.3,2.1,95.7-34.3,95.7-34.3L607.6-302.6z"/>
			<path fill="#B7DAD6" d="M604.9-258.3l-112.2,97c0,0,57.9,27.6,121.5,30S724-165.1,724-165.1L604.9-258.3z"/>
		</g>
	</g>
	<g>
		<path fill="#8D6E60" d="M742.6-113.9V-16c0,0,11.5,13.8,24,13.8S782-17.5,782-17.5V-120L742.6-113.9z"/>
		<g>
			<path fill="#86A8A3" d="M764.4-323.1l-74.1,95.2c0,0,37.3,25.9,78.6,27.5c41.3,1.6,71.8-34,71.8-34L764.4-323.1z"/>
			<path fill="#86A8A3" d="M761.5-274.2l-89.9,94.6c0,0,45.9,26.3,96.4,28.2s87.5-33.4,87.5-33.4L761.5-274.2z"/>
			<path fill="#86A8A3" d="M759.4-236l-100.2,99.5c0,0,51.3,27.8,107.7,30c56.5,2.2,97.7-35,97.7-35L759.4-236z"/>
			<path fill="#86A8A3" d="M756.7-190.8l-114.5,99c0,0,59.1,28.1,124,30.6s112-34.5,112-34.5L756.7-190.8z"/>
		</g>
	</g>
</g>
</svg>
