<?xml version="1.0" encoding="utf-8"?>
<!-- Generator: Adobe Illustrator 17.1.0, SVG Export Plug-In . SVG Version: 6.00 Build 0)  -->
<!DOCTYPE svg PUBLIC "-//W3C//DTD SVG 1.1//EN" "http://www.w3.org/Graphics/SVG/1.1/DTD/svg11.dtd">
<svg version="1.1" id="Layer_1" xmlns="http://www.w3.org/2000/svg" xmlns:xlink="http://www.w3.org/1999/xlink" x="0px" y="0px"
	 viewBox="0 0 1920 1080" enable-background="new 0 0 1920 1080" xml:space="preserve">
<g>
	<path fill="#9ABAE8" d="M-969.6,31.8c0,0,498.1-225.6,709.3-219.5C16-179.8,257.8,25.8,588,31.8S950.4-2.7,950.4-2.7v229.4h-1920
		V31.8z"/>
	<path opacity="0.1" fill="#231F20" d="M-268.2,18.9c0,0-3.4-0.5-8.6-0.6l5.3-16.7c0.7-2.2-1-4.5-3.3-4.5c-0.1,0-0.1,0-0.2,0
		c-2.4,0-4.1-2.4-3.3-4.6l3.2-9.3c0.8-2.3-0.9-4.7-3.3-4.6c0,0-0.1,0-0.1,0c-2.5,0.1-4.3-2.5-3.3-4.8l5.4-12.6
		c0.8-1.9-0.1-4-2.1-4.7c-3.3-1.1-9.9-1.4-22.6,2.8l-8.8-17.9c0,0-7-3.1-11.7-0.8c-4.8,2.3-3,8.6-3,8.6l8.2,16.6
		c-13.3,7.4-16.9,15.3-17.7,20.1c-0.4,2.4,1.2,4.7,3.5,5.2l9.9,2.1c3,0.6,4.5,4,3,6.7c0,0.1-0.1,0.1-0.1,0.2
		c-1.5,2.5-0.1,5.8,2.7,6.6l5.9,1.7c2.8,0.8,4.1,4,2.7,6.5c0,0,0,0.1-0.1,0.1c-1.3,2.5-0.1,5.6,2.6,6.4l9.2,2.9
		c2.6,0.8,3.9,3.7,2.8,6.2c-0.3,0.8-0.6,1.5-0.9,2.2c-0.7,1.9-0.1,4,1.5,5.2l22,17.1c3,2.4,7.4-0.3,6.7-4L-268.2,18.9z"/>
	<path opacity="0.1" fill="#231F20" d="M-28.8-39.6c0,0-3.9,0.3-9.7,1.6l1.5-19.8c0.2-2.7-2.3-4.8-4.9-4.1c-0.1,0-0.1,0-0.2,0.1
		c-2.6,0.6-5.1-1.5-4.9-4.2l1.1-11.1c0.3-2.7-2.2-4.9-4.9-4.2c-0.1,0-0.1,0-0.2,0c-2.8,0.7-5.4-1.7-4.9-4.5l2.7-15.3
		c0.4-2.3-1.2-4.4-3.5-4.6c-4-0.3-11.4,1.1-24.2,9l-14.5-17.5c0,0-8.5-1.6-13.2,2.2s-1.1,10.3-1.1,10.3l13.4,16.3
		c-12.8,11.7-14.6,21.3-14.3,26.8c0.2,2.7,2.5,4.9,5.3,4.8l11.5-0.2c3.5-0.1,6,3.3,5,6.7c0,0.1,0,0.2-0.1,0.2
		c-0.9,3.2,1.4,6.4,4.7,6.6l7,0.3c3.3,0.2,5.6,3.3,4.7,6.5c0,0.1,0,0.1,0,0.2c-0.8,3.1,1.4,6.2,4.6,6.4l11,0.8
		c3.1,0.2,5.2,3.1,4.7,6.1c-0.2,1-0.3,1.9-0.4,2.6c-0.3,2.2,0.9,4.4,3,5.4l28.8,13.2c4,1.8,8.1-2.2,6.4-6.2L-28.8-39.6z"/>
	<path opacity="0.1" fill="#231F20" d="M-662.7,165.3c0,0-3.8-0.8-9.7-1.3l7.1-18.6c1-2.5-0.8-5.2-3.5-5.4c-0.1,0-0.1,0-0.2,0
		c-2.7-0.1-4.5-3-3.4-5.5l4.3-10.3c1.1-2.5-0.7-5.4-3.5-5.5c-0.1,0-0.1,0-0.2,0c-2.9-0.1-4.7-3.2-3.4-5.7l7-13.9
		c1-2.1,0.1-4.6-2-5.4c-3.7-1.4-11.2-2.3-25.8,1.6l-8.8-20.9c0,0-7.7-4-13.2-1.7c-5.6,2.3-4,9.6-4,9.6l8.2,19.4
		c-15.6,7.5-20.2,16.2-21.4,21.5c-0.6,2.7,1,5.4,3.6,6.1l11.1,3.1c3.4,0.9,4.8,4.9,2.9,7.8c0,0.1-0.1,0.1-0.1,0.2
		c-1.8,2.8-0.5,6.5,2.6,7.7l6.6,2.3c3.1,1.1,4.4,4.8,2.6,7.6c0,0-0.1,0.1-0.1,0.1c-1.7,2.7-0.5,6.3,2.6,7.5l10.3,3.9
		c2.9,1.1,4.1,4.4,2.7,7.2c-0.4,0.9-0.8,1.7-1.2,2.4c-0.9,2.1-0.4,4.5,1.3,6l23.8,20.9c3.3,2.9,8.4,0.2,7.9-4.1L-662.7,165.3z"/>
	<path opacity="6.000000e-02" fill="#231F20" d="M-508.5-53.4c0,0-1.5-0.4-3.7-0.8l3.3-7c0.4-0.9-0.2-2-1.2-2.2c0,0-0.1,0-0.1,0
		c-1.1-0.1-1.7-1.3-1.2-2.2l2-3.9c0.5-1-0.1-2.1-1.2-2.2c0,0,0,0-0.1,0c-1.1-0.1-1.7-1.4-1.2-2.3l3.1-5.2c0.5-0.8,0.2-1.8-0.6-2.2
		c-1.4-0.7-4.3-1.2-10.1-0.1l-2.8-8.4c0,0-2.9-1.8-5.1-1s-1.8,3.6-1.8,3.6l2.6,7.8c-6.3,2.5-8.3,5.7-8.9,7.8c-0.3,1,0.2,2.1,1.2,2.5
		l4.2,1.5c1.3,0.5,1.7,2,0.9,3.1c0,0,0,0-0.1,0.1c-0.8,1-0.4,2.5,0.8,3l2.5,1.1c1.2,0.5,1.6,2,0.8,3c0,0,0,0,0,0.1
		c-0.7,1-0.3,2.4,0.8,3l3.9,1.8c1.1,0.5,1.5,1.8,0.9,2.9c-0.2,0.3-0.4,0.6-0.5,0.9c-0.4,0.8-0.3,1.7,0.3,2.4l8.7,8.8
		c1.2,1.2,3.3,0.3,3.2-1.4L-508.5-53.4z"/>
	<path opacity="6.000000e-02" fill="#231F20" d="M-391.7-123.5c0,0-1.5-0.4-3.8-0.7l3.1-7.1c0.4-1-0.2-2-1.3-2.1c0,0-0.1,0-0.1,0
		c-1.1-0.1-1.7-1.2-1.2-2.2l1.8-3.9c0.5-1-0.2-2.1-1.3-2.2c0,0,0,0-0.1,0c-1.1-0.1-1.8-1.3-1.2-2.3l2.9-5.3c0.4-0.8,0.1-1.8-0.7-2.1
		c-1.4-0.6-4.3-1.1-10.1,0.2l-3.1-8.3c0,0-2.9-1.7-5.1-0.9c-2.2,0.8-1.7,3.7-1.7,3.7l2.9,7.7c-6.2,2.7-8.1,6-8.7,8
		c-0.3,1,0.3,2.1,1.3,2.4l4.3,1.4c1.3,0.4,1.8,2,1,3.1c0,0,0,0-0.1,0.1c-0.8,1.1-0.3,2.5,0.9,3l2.5,1c1.2,0.5,1.6,1.9,0.9,3
		c0,0,0,0,0,0.1c-0.7,1-0.3,2.5,0.9,3l3.9,1.7c1.1,0.5,1.5,1.8,0.9,2.8c-0.2,0.3-0.4,0.6-0.5,0.9c-0.4,0.8-0.2,1.7,0.4,2.3l8.9,8.5
		c1.2,1.2,3.3,0.2,3.1-1.5L-391.7-123.5z"/>
	<path fill="#E8E9EA" d="M950.4-49.5c0,0-376.4-145.4-571.4-145.4c-247.5,0-656,277.3-986.2,286s-362.3-49.7-362.3-49.7v330.7h1920
		V-49.5z"/>
	<path fill="#66573D" d="M-109.2-143.8v37.6c0,0,4.4,5.3,9.2,5.3c4.8,0,5.9-5.9,5.9-5.9v-39.4L-109.2-143.8z"/>
	<path fill="#5C6866" d="M-71.6-148.1c5.8-3.2,9.2-6.3,9.2-6.3L-74.2-165c5.3-3.1,8.4-6,8.4-6L-79-183.6c4.7-3.3,7.5-6.5,7.5-6.5
		l-29.3-34.1l-28.5,36.6c0,0,2.6,1.8,6.8,3.9l-13.9,14.7c0,0,3.1,1.8,8.1,3.9l-12.8,12.7c0,0,3.3,1.8,8.7,4l-15.3,13.2
		c0,0,22.7,10.8,47.7,11.8c24.9,1,43.1-13.2,43.1-13.2L-71.6-148.1z"/>
	<g>
		<path fill="#66573D" d="M-722.1,28.7v45.9c0,0,5.4,6.5,11.3,6.5c5.9,0,7.2-7.2,7.2-7.2v-48L-722.1,28.7z"/>
		<path fill="#5C6866" d="M-676.2,23.5c7.1-3.9,11.3-7.7,11.3-7.7l-14.4-13c6.4-3.7,10.2-7.3,10.2-7.3l-16.1-15.3
			c5.7-4,9.1-7.9,9.1-7.9l-35.7-41.6l-34.7,44.6c0,0,3.1,2.2,8.2,4.8l-17,17.9c0,0,3.7,2.1,9.8,4.7l-15.6,15.5c0,0,4,2.2,10.6,4.8
			l-18.6,16.1c0,0,27.7,13.2,58.1,14.3c30.4,1.2,52.5-16.1,52.5-16.1L-676.2,23.5z"/>
	</g>
	<path fill="#717F96" d="M-388.5-176.7l-6.8-5.4c2.7-1.5,4.4-3,4.4-3l-5.6-5c2.5-1.5,4-2.8,4-2.8l-6.3-5.9c2.2-1.5,3.5-3.1,3.5-3.1
		l-13.9-16.1l-13.5,17.3c0,0,1.2,0.8,3.2,1.8l-6.6,6.9c0,0,1.5,0.8,3.8,1.8l-6.1,6c0,0,1.6,0.8,4.1,1.9l-7.2,6.2
		c0,0,8.3,3.9,18.3,5.2v8.6c0,0,2.1,2.5,4.4,2.5c2.3,0,2.8-2.8,2.8-2.8v-8C-395.7-171-388.5-176.7-388.5-176.7z"/>
	<path fill="#66573D" d="M-328.6-91.3V-61c0,0,3.6,4.3,7.4,4.3s4.7-4.7,4.7-4.7v-31.7L-328.6-91.3z"/>
	<path fill="#40495B" d="M-298.4-94.7c4.7-2.6,7.4-5.1,7.4-5.1l-9.5-8.5c4.2-2.5,6.7-4.8,6.7-4.8l-10.6-10.1c3.8-2.6,6-5.2,6-5.2
		l-23.5-27.4l-22.9,29.4c0,0,2.1,1.4,5.4,3.1l-11.2,11.8c0,0,2.5,1.4,6.5,3.1l-10.3,10.2c0,0,2.7,1.4,7,3.2l-12.2,10.6
		c0,0,18.2,8.7,38.3,9.5c20,0.8,34.6-10.6,34.6-10.6L-298.4-94.7z"/>
	<path fill="#434948" d="M-503.7-106.5l-7.1-5.5c2.8-1.6,4.5-3.1,4.5-3.1l-5.8-5.2c2.6-1.5,4.1-2.9,4.1-2.9l-6.5-6.1
		c2.3-1.6,3.7-3.2,3.7-3.2l-14.3-16.7l-13.9,17.9c0,0,1.3,0.9,3.3,1.9l-6.8,7.2c0,0,1.5,0.9,3.9,1.9l-6.3,6.2c0,0,1.6,0.9,4.3,1.9
		l-7.5,6.4c0,0,8.5,4.1,18.9,5.4v8.9c0,0,2.2,2.6,4.5,2.6c2.3,0,2.9-2.9,2.9-2.9v-8.3C-511.2-100.7-503.7-106.5-503.7-106.5z"/>
	<path opacity="7.000000e-02" fill="#231F20" d="M800.1,188.7c0,0-12.8-2-32.1-2.3l19.7-62.3c2.7-8.4-3.6-17-12.4-16.9
		c-0.2,0-0.5,0-0.7,0c-9,0.1-15.3-8.8-12.3-17.3l12.1-34.7c3-8.6-3.5-17.5-12.5-17.3c-0.2,0-0.4,0-0.5,0c-9.4,0.2-16-9.4-12.2-18.1
		l20.1-46.9c3-7-0.5-15.1-7.8-17.4c-12.5-4-37.1-5.2-84.4,10.6l-33-66.9c0,0-26-11.6-43.8-3S589-71.8,589-71.8l30.7,62.2
		c-49.8,27.6-63,57.2-66,75c-1.5,8.9,4.3,17.4,13.2,19.3l36.9,7.9c11.3,2.4,16.8,15.1,11.1,25.1c-0.1,0.2-0.3,0.4-0.4,0.7
		c-5.4,9.5-0.4,21.6,10.1,24.6l22.2,6.3c10.4,3,15.4,14.9,10.2,24.4c-0.1,0.2-0.2,0.3-0.3,0.5c-5,9.3-0.2,20.9,9.9,24.1l34.4,10.9
		c9.6,3,14.4,13.8,10.4,23c-1.3,3-2.4,5.7-3.3,8.2c-2.6,7-0.4,14.8,5.4,19.4l82.3,64c11.3,8.8,27.6-0.9,25.1-15.1L800.1,188.7z"/>
	<path opacity="7.000000e-02" fill="#231F20" d="M948.6,249.4c0,0-12.8-2-32.1-2.3l19.7-62.3c2.7-8.4-3.6-17-12.4-16.9
		c-0.2,0-0.5,0-0.7,0c-9,0.1-15.3-8.8-12.3-17.3l12.1-34.7c3-8.6-3.5-17.5-12.5-17.3c-0.2,0-0.4,0-0.5,0c-9.4,0.2-16-9.4-12.2-18.1
		l20.1-46.9c3-7-0.5-15.1-7.8-17.4c-12.5-4-37.1-5.2-84.4,10.6l-33-66.9c0,0-26-11.6-43.8-3S737.5-11,737.5-11l30.7,62.2
		c-49.8,27.6-63,57.2-66,75c-1.5,8.9,4.3,17.4,13.2,19.3l36.9,7.9c11.3,2.4,16.8,15.1,11.1,25.1c-0.1,0.2-0.3,0.4-0.4,0.7
		c-5.4,9.5-0.4,21.6,10.1,24.6l22.2,6.3c10.4,3,15.4,14.9,10.2,24.4c-0.1,0.2-0.2,0.3-0.3,0.5c-5,9.3-0.2,20.9,9.9,24.1l34.4,10.9
		c9.6,3,14.4,13.8,10.4,23c-1.3,3-2.4,5.7-3.3,8.2c-2.6,7-0.4,14.8,5.4,19.4l82.3,64c11.3,8.8,27.6-0.9,25.1-15.1L948.6,249.4z"/>
	<path fill="#66573D" d="M591.3-182.8v96c0,0,11.3,13.5,23.5,13.5c12.2,0,15.1-15,15.1-15v-100.5L591.3-182.8z"/>
	<path fill="#5C6866" d="M687.3-193.8c14.9-8.2,23.6-16,23.6-16L680.6-237c13.4-7.8,21.3-15.4,21.3-15.4l-33.7-32
		c11.9-8.3,19-16.6,19-16.6l-74.7-86.9L540-294.6c0,0,6.6,4.6,17.2,9.9l-35.5,37.4c0,0,7.8,4.5,20.6,9.8L509.5-205
		c0,0,8.4,4.6,22.2,10.1l-38.9,33.6c0,0,57.9,27.6,121.5,30c63.6,2.4,109.8-33.8,109.8-33.8L687.3-193.8z"/>
	<path fill="#66573D" d="M742.7-113.8v97.9c0,0,11.5,13.8,24,13.8s15.4-15.3,15.4-15.3v-102.5L742.7-113.8z"/>
	<path fill="#40495B" d="M840.7-125c15.2-8.4,24-16.4,24-16.4l-30.8-27.7c13.7-8,21.8-15.7,21.8-15.7l-34.4-32.7
		c12.2-8.5,19.4-16.9,19.4-16.9L764.5-323l-74.1,95.2c0,0,6.7,4.7,17.6,10.1l-36.3,38.1c0,0,8,4.6,21,10l-33.4,33.1
		c0,0,8.6,4.7,22.6,10.3l-39.7,34.3c0,0,59.1,28.1,124,30.6c64.9,2.5,112-34.5,112-34.5L840.7-125z"/>
	<path fill="#E8E9EA" d="M612.6-387.9l-54.7,70.3c0,0,5.5,5.3,16.9,4.7c11.3-0.7,16.5-5.3,16.5-5.3s-3.8,17.2,13.9,18.6
		c17.6,1.4,18.3-29.3,18.3-29.3s16.4,23.1,37.2-3.1L612.6-387.9z"/>
	<path fill="#E8E9EA" d="M764.6-323l64.5,75.1c0,0-4.4,7-14.2,7.5c-11.3,0.6-19.5-17.1-19.5-17.1s-2.1,20.2-19.6,22.3
		s-21.9-24.3-21.9-24.3s-13.1,19.6-34.9-5.7L764.6-323z"/>
</g>
</svg>
